HIERARCHY
ROOT Hips
{
 OFFSET 0.000000 0.000000 0.000000
 CHANNELS 6 Xposition Yposition Zposition Yrotation Xrotation Zrotation
 JOINT Chest
 {
  OFFSET 0.000000 9.585900 0.002600
  CHANNELS 3 Yrotation Xrotation Zrotation
  JOINT Chest2
  {
   OFFSET 0.000000 9.601200 -0.005300
   CHANNELS 3 Yrotation Xrotation Zrotation
   JOINT Chest3
   {
    OFFSET 0.000000 9.561800 0.000000
    CHANNELS 3 Yrotation Xrotation Zrotation
    JOINT Chest4
    {
     OFFSET 0.000000 9.552100 0.000000
     CHANNELS 3 Yrotation Xrotation Zrotation
     JOINT Neck
     {
      OFFSET 0.000000 14.453000 0.000000
      CHANNELS 3 Yrotation Xrotation Zrotation
      JOINT Head
      {
       OFFSET 0.000000 8.936500 -0.011300
       CHANNELS 3 Yrotation Xrotation Zrotation
       End Site
       {
        OFFSET 0.000000 17.073600 -0.006000
       }
      }
     }
     JOINT RightCollar
     {
      OFFSET -2.921100 9.558500 0.000000
      CHANNELS 3 Yrotation Xrotation Zrotation
      JOINT RightShoulder
      {
       OFFSET -13.519700 0.000000 0.000000
       CHANNELS 3 Yrotation Xrotation Zrotation
       JOINT RightElbow
       {
        OFFSET 0.000000 -29.696600 0.000000
        CHANNELS 3 Yrotation Xrotation Zrotation
        JOINT RightWrist
        {
         OFFSET 0.000000 -24.004700 0.000000
         CHANNELS 3 Yrotation Xrotation Zrotation
         End Site
         {
          OFFSET 0.000000 -17.728500 0.000000
         }
        }
       }
      }
     }
     JOINT LeftCollar
     {
      OFFSET 2.921100 9.558500 0.000000
      CHANNELS 3 Yrotation Xrotation Zrotation
      JOINT LeftShoulder
      {
       OFFSET 13.519700 0.000000 0.000000
       CHANNELS 3 Yrotation Xrotation Zrotation
       JOINT LeftElbow
       {
        OFFSET 0.000000 -29.696600 0.000000
        CHANNELS 3 Yrotation Xrotation Zrotation
        JOINT LeftWrist
        {
         OFFSET 0.000000 -24.004700 0.000000
         CHANNELS 3 Yrotation Xrotation Zrotation
         End Site
         {
          OFFSET 0.000000 -17.728500 0.000000
         }
        }
       }
      }
     }
    }
   }
  }
 }
 JOINT RightHip
 {
  OFFSET -7.771700 -0.012900 -0.001300
  CHANNELS 3 Yrotation Xrotation Zrotation
  JOINT RightKnee
  {
   OFFSET 0.000000 -40.869800 0.001200
   CHANNELS 3 Yrotation Xrotation Zrotation
   JOINT RightAnkle
   {
    OFFSET 0.000000 -39.717900 0.002100
    CHANNELS 3 Yrotation Xrotation Zrotation
    JOINT RightToe
    {
     OFFSET 0.000000 -4.965400 11.033500
     CHANNELS 3 Yrotation Xrotation Zrotation
     End Site
     {
      OFFSET 0.000000 -1.423100 5.872300
     }
    }
   }
  }
 }
 JOINT LeftHip
 {
  OFFSET 7.771700 -0.012900 -0.001300
  CHANNELS 3 Yrotation Xrotation Zrotation
  JOINT LeftKnee
  {
   OFFSET 0.000000 -40.869800 0.001200
   CHANNELS 3 Yrotation Xrotation Zrotation
   JOINT LeftAnkle
   {
    OFFSET 0.000000 -39.717900 0.002100
    CHANNELS 3 Yrotation Xrotation Zrotation
    JOINT LeftToe
    {
     OFFSET 0.000000 -4.965400 11.033500
     CHANNELS 3 Yrotation Xrotation Zrotation
     End Site
     {
      OFFSET 0.000000 -1.423100 5.872300
     }
    }
   }
  }
 }
}
MOTION
Frames: 13
Frame Time: 0.008333
-35.044545 52.452936 23.653346 -178.314117 -28.786096 -2.830676 2.583939 24.865745 0.060687 0.340816 3.896073 -0.059333 0.622230 6.261235 -0.068624 2.134805 20.628059 0.033226 -2.705677 20.050618 -5.351635 -1.639691 -4.295468 -5.173607 12.844509 13.093765 15.482627 27.450718 -12.707586 -37.204446 -99.772900 -60.012329 40.963524 -9.749953 -5.533148 -15.725339 -10.511890 15.013582 -17.896550 -33.265867 -7.184001 38.178298 124.692843 -46.692884 -72.924766 21.095687 -10.470619 14.266210 -9.121953 -52.080557 0.501419 -54.303335 80.632642 -62.348370 -3.048933 -3.325770 8.702450 0.064489 0.040835 -0.432164 0.157004 -51.806879 -1.506331 53.787825 84.950717 59.766331 -0.811375 -13.845679 -1.383175 -0.041454 0.038452 0.002724
-35.043895 52.443916 23.647582 -178.318146 -28.799652 -2.829834 2.533083 24.865248 0.031164 0.349068 3.892374 -0.060679 0.632202 6.262674 -0.065515 2.119949 20.619675 0.040103 -2.737505 20.090303 -5.329156 -1.679999 -4.248568 -5.134602 12.862126 13.095428 15.471043 27.443525 -12.716264 -37.203905 -99.934677 -60.043748 41.087835 -9.739526 -5.538712 -15.740846 -10.483600 14.959308 -17.885782 -33.217408 -7.154817 38.179057 124.782128 -46.729695 -73.044283 21.108395 -10.449069 14.278575 -9.088057 -52.056560 0.476656 -54.414503 80.688003 -62.448685 -3.103189 -3.525638 8.927506 0.064808 0.135877 -0.509365 0.216831 -51.805220 -1.522422 53.830518 84.977753 59.813970 -0.816855 -13.866160 -1.362317 -0.046265 0.053488 0.003964
-35.039673 52.437422 23.641441 -178.340168 -28.808064 -2.832178 2.476195 24.842214 -0.009950 0.387508 3.904630 -0.050419 0.660724 6.274518 -0.058352 2.086188 20.597985 0.041178 -2.775594 20.124683 -5.302537 -1.724687 -4.209762 -5.090972 12.841731 13.056813 15.466563 27.456110 -12.676903 -37.185376 -100.080619 -60.080690 41.199612 -9.725546 -5.537926 -15.761409 -10.458927 14.917978 -17.884319 -33.151827 -7.134681 38.269325 124.784418 -46.689009 -73.080067 21.107088 -10.434632 14.277247 -9.084619 -52.050887 0.502681 -54.638383 80.746978 -62.678987 -3.150193 -3.739602 9.144173 0.060657 0.219277 -0.565881 0.271172 -51.807221 -1.514043 53.851249 85.004641 59.843176 -0.823991 -13.884948 -1.349102 -0.048382 0.065623 0.005616
-35.031934 52.433508 23.635291 -178.380217 -28.811356 -2.840370 2.497305 24.832337 0.000893 0.379275 3.896773 -0.053605 0.651665 6.270706 -0.058516 2.081415 20.592082 0.039316 -2.808030 20.150488 -5.272387 -1.775287 -4.178160 -5.043046 12.826945 13.017130 15.460574 27.433182 -12.724731 -37.153168 -100.053481 -60.127183 41.210309 -9.694774 -5.484284 -15.764844 -10.426748 14.870898 -17.881111 -33.098625 -7.100453 38.287562 124.841546 -46.720397 -73.172196 21.102646 -10.407905 14.283429 -9.094070 -52.056228 0.562987 -54.939107 80.807076 -62.987633 -3.185855 -3.975878 9.336000 0.046835 0.300204 -0.595706 0.318472 -51.812318 -1.481023 53.839445 85.032275 59.849890 -0.830862 -13.901822 -1.348970 -0.043046 0.074812 0.009106
-35.026890 52.431384 23.629558 -178.403805 -28.807717 -2.836413 2.513026 24.824060 0.002756 0.371512 3.890589 -0.056677 0.604776 6.230710 -0.075198 2.110683 20.611794 0.047090 -2.851082 20.168683 -5.240879 -1.833489 -4.152807 -4.991800 12.839743 13.019359 15.459060 27.416613 -12.760294 -37.133238 -100.033681 -60.154784 41.214067 -9.705521 -5.551268 -15.808398 -10.399366 14.820674 -17.875587 -33.054649 -7.053744 38.269978 124.925863 -46.793575 -73.291579 21.093706 -10.367645 14.291872 -9.099610 -52.077142 0.598086 -55.334386 80.870328 -63.389940 -3.225758 -4.246046 9.487961 0.035964 0.386776 -0.590735 0.374868 -51.821482 -1.472495 53.815767 85.054657 59.826371 -0.841841 -13.918987 -1.329605 -0.045010 0.084857 0.008172
-35.023169 52.431385 23.622312 -178.430454 -28.812848 -2.821101 2.502889 24.811211 -0.024633 0.386810 3.896946 -0.051431 0.593260 6.212674 -0.083371 2.109122 20.604328 0.045848 -2.903187 20.186071 -5.207460 -1.898714 -4.132073 -4.937481 12.848024 13.025920 15.462204 27.421677 -12.746845 -37.114481 -100.241692 -60.212577 41.366334 -9.688324 -5.539380 -15.840565 -10.375481 14.773251 -17.868389 -33.011455 -7.000889 38.253202 125.008794 -46.875883 -73.409153 21.101026 -10.310190 14.323228 -9.091530 -52.094302 0.621567 -55.839743 80.933481 -63.900132 -3.272361 -4.555189 9.596079 0.027944 0.479991 -0.554025 0.443727 -51.821325 -1.466079 53.878530 85.072820 59.862058 -0.859117 -13.936955 -1.278389 -0.063224 0.089929 -0.002726
-35.015606 52.429145 23.619600 -178.474291 -28.786627 -2.817848 2.522704 24.765191 -0.027822 0.386666 3.892813 -0.052707 0.592436 6.203177 -0.087976 2.081020 20.557517 0.019031 -2.928911 20.239757 -5.158481 -1.968665 -4.114785 -4.879898 12.828308 13.001226 15.462565 27.431267 -12.711700 -37.023041 -100.365112 -60.287511 41.469903 -9.667345 -5.505028 -15.860390 -10.323964 14.764923 -17.853454 -32.945198 -6.955075 38.273514 125.048530 -46.933980 -73.501629 21.083838 -10.246814 14.334556 -9.100059 -52.137063 0.686945 -56.243103 80.966496 -64.307542 -3.299541 -4.853958 9.669140 0.010419 0.566148 -0.499875 0.495656 -51.853310 -1.434293 53.830879 85.097170 59.817774 -0.870026 -13.951650 -1.270332 -0.056876 0.096984 0.001320
-35.010358 52.429486 23.609515 -178.468592 -28.807294 -2.822842 2.474873 24.751441 -0.068270 0.402685 3.902369 -0.042532 0.602755 6.204251 -0.087607 2.074169 20.540852 0.004402 -2.986161 20.251147 -5.115435 -2.040139 -4.103136 -4.820149 12.798808 12.967717 15.453966 27.428761 -12.700583 -36.945525 -100.402126 -60.336521 41.515934 -9.662283 -5.515607 -15.885135 -10.296215 14.716962 -17.838822 -32.844395 -6.928534 38.354234 125.017650 -46.946627 -73.553542 21.044015 -10.184177 14.324893 -9.109057 -52.124303 0.697630 -56.802237 81.051279 -64.857577 -3.364330 -5.250442 9.724889 -0.008589 0.674128 -0.443439 0.521771 -51.834464 -1.423071 53.769084 85.121766 59.755334 -0.881859 -13.966027 -1.261007 -0.046904 0.102742 0.005736
-35.008841 52.427505 23.598334 -178.482404 -28.833797 -2.791393 2.471897 24.773466 -0.100295 0.387247 3.883132 -0.055590 0.619514 6.220412 -0.076520 2.052345 20.511438 -0.023325 -3.020843 20.265029 -5.076112 -2.133185 -4.107806 -4.747897 12.781882 12.943741 15.451993 27.415207 -12.698597 -36.868148 -100.365875 -60.368405 41.518971 -9.662985 -5.531002 -15.898126 -10.262941 14.669403 -17.820433 -32.757872 -6.892204 38.396560 125.037981 -46.995946 -73.650530 21.018790 -10.119389 14.338203 -9.092662 -52.119672 0.695395 -57.478391 81.129340 -65.547583 -3.447194 -5.667382 9.779146 -0.010133 0.774834 -0.390240 0.582213 -51.810184 -1.445023 54.088612 85.109262 60.037067 -0.895671 -13.983823 -1.228569 -0.071021 0.104803 -0.002374
-35.004141 52.420401 23.589955 -178.491528 -28.836841 -2.773492 2.450692 24.759990 -0.137990 0.386943 3.878570 -0.058101 0.619230 6.213510 -0.080549 2.056969 20.502660 -0.041821 -3.010481 20.293980 -5.043046 -2.268956 -4.140032 -4.653191 12.763649 12.920557 15.450790 27.394191 -12.692969 -36.780459 -100.476275 -60.434028 41.632810 -9.649353 -5.527967 -15.912779 -10.228474 14.625446 -17.799517 -32.681972 -6.848688 38.420598 125.093266 -47.063617 -73.774845 20.985178 -10.056460 14.350140 -9.117216 -52.134885 0.745167 -58.201645 81.163384 -66.307220 -3.513470 -6.085364 9.843554 -0.008723 0.861399 -0.345317 0.641310 -51.810371 -1.452414 54.011700 85.138463 59.959081 -0.925957 -14.004830 -1.215940 -0.055570 0.115056 0.007586
-35.005058 52.409805 23.580262 -178.510208 -28.844026 -2.708114 2.424653 24.752057 -0.221450 0.387514 3.874443 -0.060805 0.607867 6.185111 -0.103983 2.078001 20.511546 -0.041422 -3.128885 20.252456 -4.986952 -2.268327 -4.131155 -4.629787 12.743586 12.902488 15.452841 27.385940 -12.679283 -36.693571 -100.589327 -60.496860 41.744227 -9.638381 -5.531052 -15.927618 -10.195765 14.587535 -17.778857 -32.601399 -6.805091 38.448400 125.153224 -47.132606 -73.907796 20.955717 -9.993167 14.355890 -9.135122 -52.175951 0.802832 -59.155271 81.169653 -67.349598 -3.616467 -6.442896 9.902717 0.043165 0.872010 -0.283746 0.758194 -51.806517 -1.520276 54.099305 85.161477 60.029529 -0.968585 -14.059504 -1.189739 -0.036113 0.151675 0.010516
-35.005455 52.396787 23.568459 -178.521657 -28.859341 -2.638716 2.389181 24.753416 -0.316861 0.388073 3.869285 -0.063780 0.608572 6.167567 -0.114243 2.088375 20.507389 -0.051227 -3.199496 20.220874 -4.942610 -2.308071 -4.142491 -4.583074 12.719250 12.887532 15.457113 27.393896 -12.656445 -36.610626 -100.719368 -60.564194 41.859907 -9.623262 -5.504110 -15.936605 -10.165255 14.553523 -17.761081 -32.511660 -6.762888 38.477363 125.209988 -47.207679 -74.048832 20.937291 -9.928794 14.353443 -9.130930 -52.206112 0.823414 -60.009500 81.187576 -68.282689 -3.727285 -6.778071 9.959819 0.093738 0.846697 -0.227560 0.867572 -51.793717 -1.599432 54.192828 85.180951 60.106542 -1.006882 -14.109773 -1.175423 -0.003899 0.188194 0.013600
-35.003919 52.381146 23.556490 -178.513375 -28.869207 -2.579133 2.328987 24.726829 -0.428791 0.389928 3.859006 -0.070254 0.629343 6.200273 -0.088139 2.082538 20.480976 -0.081723 -3.243107 20.195393 -4.903349 -2.363498 -4.172559 -4.530168 12.704396 12.884265 15.472255 27.353270 -12.651660 -36.491292 -100.937605 -60.709021 42.091535 -9.598081 -5.410048 -15.939532 -10.136557 14.519145 -17.745539 -32.413774 -6.721351 38.503433 125.262666 -47.293558 -74.195733 20.925603 -9.857941 14.344275 -9.137403 -52.236600 0.833034 -60.714077 81.221036 -69.057533 -3.855559 -7.084319 10.004616 0.148581 0.793499 -0.171256 0.949148 -51.787420 -1.690057 54.260569 85.196773 60.171271 -1.015488 -14.145438 -1.185608 0.005628 0.215560 0.027391
